<?xml version="1.0" encoding="UTF-8"?>
<svg id="Ebene_1" data-name="Ebene 1" xmlns="http://www.w3.org/2000/svg" xmlns:xlink="http://www.w3.org/1999/xlink" viewBox="0 0 1080.5 609.94">
  <defs>
    <style>
      .cls-1 {
        fill: #020200;
      }

      .cls-2 {
        fill: #757c83;
      }

      .cls-3 {
        fill: url(#Unbenannter_Verlauf_5);
      }
    </style>
    <linearGradient id="Unbenannter_Verlauf_5" data-name="Unbenannter Verlauf 5" x1="1292.81" y1="459.98" x2="1292.81" y2="277.18" gradientTransform="translate(1708.67 459.98) rotate(-180)" gradientUnits="userSpaceOnUse">
      <stop offset=".06" stop-color="#43cda0"/>
      <stop offset=".45" stop-color="#4977fc"/>
      <stop offset=".55" stop-color="#6463db"/>
      <stop offset=".76" stop-color="#9d3896"/>
      <stop offset=".92" stop-color="#c21e6a"/>
      <stop offset="1" stop-color="#d0145a"/>
    </linearGradient>
  </defs>
  <path class="cls-1" d="M202.54,0H.65V43.68l121.87-.21c.32,.74-82.2,69.04-116.07,99.19-2.53,2.26-5.88,5.24-6.04,8.02-.67,12-.29,24.05-.29,36.03H202.53v-42.62l-120.26,.8c3.19-3.24,118.63-99.97,120.76-101.43L202.54,0Z"/>
  <path class="cls-1" d="M1080.11,39.49c0-.62,0-1.23-.01-1.85-.78-25.7-14.19-37.24-44.33-37.45-33.02-.23-66.05-.28-99.07,.02-28.13,.25-42.62,11.95-43.01,35.75-.62,38.26-.58,76.54-.01,114.8,.33,22.25,17.63,35.89,43.72,35.93,32.66,.05,65.32,.04,97.98,0,27.89-.02,44.37-13.92,44.68-37.96,.24-18.21,.05-36.42,.05-54.62,0-18.21,0-36.42,0-54.63Zm-45.71,103.51h-94.2V44.28h94.2v98.71Z"/>
  <path class="cls-1" d="M1044.9,296.9c-20.77-.19-60.39-.12-81.16,0-24.78,.13-49.62-.41-74.33,.92-21.04,1.13-30.19,11.35-30.26,30.71-.15,39.47-.18,78.94-.02,118.4,.1,23.26,12.98,34.79,38.59,34.83,51.27,.07,121.38,.03,172.64,0,3.2,0,6.4-.31,9.71-.48v-42h-173.09v-36.89h173.15c0-26.44,1.01-51.52-.32-76.51-1.04-19.64-13.31-28.78-34.91-28.98Zm-7.87,61.38h-130.34v-17.49h130.34v17.49Z"/>
  <path class="cls-1" d="M512.15,298.15c-4.57-.82-9.31-1.21-13.97-1.22-39.86-.09-106.09-.07-145.95-.03-2.92,0-5.84,.35-8.96,.54v43h149.7v27.55c-4.41,0-8.04,0-11.66,0-34.84,0-96.05-.17-130.88,.07-23.88,.16-37.66,9.69-38.23,26.79-.61,18.64-.64,37.32-.03,55.96,.56,17.12,15.82,30.72,34.44,30.84,44.55,.27,115.47,.26,160.02,0,17.44-.11,31.51-10.73,32.73-26.64,1.77-23.12,1.62-46.39,1.73-69.59,.09-20.16,.23-40.38-1.2-60.48-1.1-15.48-10.71-23.71-27.74-26.78Zm-19.35,140.55h-139.88v-26.28h139.88v26.28Z"/>
  <path class="cls-1" d="M781.53,358.82c-35.19-.05-108.05-.01-143.24-.01h-10.82v-18.76h192.23v-43.18h-11.46c-48.26,0-134.19,0-182.45,0-3.69,0-7.38-.09-11.06,.05-21.88,.86-34.41,12.71-34.54,32.72-.08,12.85-.05,25.7-.01,38.55,.06,22.95,12.4,34.19,37.79,34.24,35.19,.07,108.05,.02,143.24,.02h10.77v35.83h-145.39v-21.97h-46.42c0,11.1-.03,21.45,0,31.8,.09,23.41,11.15,33.61,36.67,33.64,42.56,.05,122.8,.03,165.36,.01,25.44-.01,37.63-10.68,38.09-33.93,.35-18.05,.29-36.11,.02-54.16-.34-22.95-13.7-34.83-38.8-34.86Z"/>
  <path class="cls-3" d="M235.45,164.14c0-10.36,8.48-18.84,18.84-18.84h323.08c10.36,0,18.84,8.48,18.84,18.84v3.73c0,10.36-8.48,18.84-18.84,18.84H254.29c-10.36,0-18.84-8.48-18.84-18.84v-3.73Zm.02-141.57c0,10.36,8.48,18.84,18.84,18.84h323.08c10.36,0,18.84-8.48,18.84-18.84v-3.73C596.23,8.48,587.75,0,577.39,0H254.31C243.95,0,235.47,8.48,235.47,18.84v3.73Zm.04,73.51c0,10.36,8.48,18.84,18.84,18.84h323.08c10.36,0,18.84-8.48,18.84-18.84v-3.73c0-10.36-8.48-18.84-18.84-18.84H254.34c-10.36,0-18.84,8.48-18.84,18.84v3.73Z"/>
  <path class="cls-1" d="M273.29,328.56c0-3.91-.56-7.99-1.83-11.71-4.71-13.74-15.62-19.79-36.52-19.92-34.85-.2-69.7-.06-104.56-.06-3.6,0-78.79,0-83.81,0v-84.46H.46V480.63c1.06,.47,1.63,.95,2.21,.95,55.96,.05,183.51,.34,239.47-.08,17.14-.13,30.29-11.49,30.62-27.26,.88-41.88,.54-83.78,.53-125.68Zm-45.3,104.45H45.85v-89.28H227.99v89.28Z"/>
  <g>
    <path class="cls-2" d="M20.9,566.84c-.73-1.01-1.72-1.83-2.97-2.48-1.25-.64-2.66-.96-4.22-.96-.83,0-1.68,.11-2.53,.34-.85,.22-1.62,.59-2.32,1.09-.7,.51-1.26,1.13-1.69,1.88-.43,.75-.65,1.64-.65,2.69s.2,1.85,.6,2.53c.4,.68,.94,1.25,1.61,1.72,.68,.47,1.48,.87,2.4,1.2s1.9,.67,2.95,1.01c1.25,.38,2.52,.82,3.8,1.3,1.29,.49,2.45,1.13,3.49,1.93,1.04,.8,1.89,1.8,2.55,3,.66,1.2,.99,2.72,.99,4.56s-.36,3.57-1.07,4.98c-.71,1.41-1.66,2.57-2.84,3.49-1.18,.92-2.55,1.61-4.09,2.06-1.55,.45-3.14,.68-4.77,.68-2.33,0-4.58-.45-6.75-1.35-2.17-.9-3.97-2.24-5.39-4.01l4.01-3.39c.87,1.28,2.03,2.33,3.49,3.13,1.46,.8,3.04,1.2,4.74,1.2,.87,0,1.74-.12,2.61-.37,.87-.24,1.66-.63,2.37-1.15,.71-.52,1.29-1.17,1.75-1.95s.68-1.73,.68-2.84-.23-2.04-.7-2.79c-.47-.75-1.1-1.38-1.9-1.9-.8-.52-1.73-.96-2.79-1.33s-2.18-.74-3.36-1.12c-1.18-.34-2.35-.77-3.49-1.28-1.15-.5-2.17-1.15-3.07-1.93-.9-.78-1.63-1.75-2.19-2.89-.56-1.15-.83-2.57-.83-4.27,0-1.84,.37-3.42,1.12-4.74s1.72-2.41,2.92-3.28c1.2-.87,2.55-1.5,4.06-1.9,1.51-.4,3.03-.6,4.56-.6,2.15,0,4.17,.38,6.05,1.15,1.88,.76,3.39,1.79,4.53,3.07l-3.65,3.54Z"/>
    <path class="cls-2" d="M55.39,578.46c-.52-.8-1.3-1.47-2.35-2.01-1.04-.54-2.15-.81-3.33-.81-1.29,0-2.42,.24-3.41,.73-.99,.49-1.83,1.14-2.53,1.95-.7,.82-1.22,1.76-1.59,2.84-.37,1.08-.55,2.21-.55,3.39s.18,2.31,.55,3.39c.37,1.08,.89,2.02,1.59,2.84,.69,.81,1.55,1.47,2.55,1.95,1.01,.49,2.15,.73,3.44,.73s2.39-.24,3.41-.73c1.03-.48,1.87-1.15,2.53-1.98l3.28,2.97c-1.04,1.22-2.34,2.16-3.91,2.84-1.56,.68-3.33,1.01-5.31,1.01s-3.67-.31-5.29-.94c-1.61-.63-3.01-1.5-4.2-2.63-1.18-1.13-2.11-2.49-2.79-4.09-.68-1.6-1.02-3.39-1.02-5.37s.33-3.71,.99-5.31c.66-1.6,1.58-2.97,2.76-4.12,1.18-1.15,2.58-2.03,4.19-2.66,1.62-.63,3.36-.94,5.24-.94,1.74,0,3.47,.35,5.18,1.04,1.72,.7,3.08,1.7,4.09,3.02l-3.54,2.87Z"/>
    <path class="cls-2" d="M75.09,575.96c.59-1.22,1.6-2.26,3.02-3.13s3.02-1.31,4.79-1.31c1.6,0,2.97,.27,4.12,.81,1.15,.54,2.1,1.26,2.87,2.16,.76,.9,1.33,1.96,1.69,3.18,.37,1.22,.55,2.52,.55,3.91v15.32h-4.9v-13.69c0-1.01-.08-1.97-.23-2.87-.16-.9-.44-1.71-.86-2.4-.42-.69-.98-1.25-1.69-1.67-.71-.42-1.64-.63-2.79-.63-1.95,0-3.54,.74-4.79,2.22-1.25,1.48-1.88,3.46-1.88,5.93v13.11h-4.9v-39.39h4.9v18.45h.1Z"/>
    <path class="cls-2" d="M110.99,572.21c.07,.63,.12,1.33,.16,2.11,.03,.78,.05,1.43,.05,1.95h.16c.31-.66,.74-1.28,1.28-1.85,.54-.57,1.16-1.07,1.85-1.51s1.46-.78,2.29-1.02c.83-.24,1.7-.37,2.61-.37,1.6,0,2.97,.27,4.12,.81s2.1,1.26,2.87,2.16c.76,.9,1.33,1.96,1.69,3.18,.36,1.22,.55,2.52,.55,3.91v15.32h-4.9v-13.7c0-1.01-.08-1.96-.23-2.87-.16-.9-.44-1.7-.86-2.4-.42-.69-.99-1.25-1.72-1.67-.73-.42-1.67-.62-2.81-.62-1.95,0-3.54,.74-4.77,2.21-1.23,1.48-1.85,3.45-1.85,5.91v13.13h-4.9v-19.39c0-.66-.02-1.51-.05-2.55-.03-1.04-.09-1.96-.16-2.76h4.64Z"/>
    <path class="cls-2" d="M166.12,584.35v.83c0,.28-.02,.56-.05,.84h-19.65c.03,1.04,.27,2.01,.7,2.92,.43,.92,1.02,1.71,1.75,2.38,.73,.67,1.57,1.2,2.53,1.58,.95,.38,1.97,.57,3.05,.57,1.67,0,3.11-.37,4.33-1.09,1.22-.73,2.17-1.62,2.86-2.66l3.44,2.76c-1.32,1.75-2.88,3.04-4.66,3.87-1.79,.83-3.78,1.24-5.97,1.24-1.88,0-3.61-.31-5.21-.94-1.6-.63-2.97-1.5-4.12-2.63-1.15-1.13-2.05-2.49-2.71-4.09-.66-1.6-.99-3.37-.99-5.31s.32-3.68,.97-5.29c.64-1.62,1.54-3,2.69-4.14,1.15-1.15,2.51-2.04,4.07-2.69,1.57-.64,3.26-.96,5.07-.96s3.45,.3,4.93,.89c1.48,.59,2.73,1.44,3.76,2.55,1.03,1.11,1.82,2.46,2.38,4.04,.56,1.58,.84,3.36,.84,5.34Zm-5-1.98c-.03-.97-.2-1.88-.5-2.74-.29-.85-.73-1.59-1.3-2.22-.57-.62-1.29-1.12-2.14-1.48-.85-.37-1.85-.55-3-.55-1.04,0-2.03,.18-2.94,.55-.92,.37-1.72,.86-2.4,1.48-.68,.63-1.23,1.36-1.67,2.22-.44,.85-.69,1.76-.76,2.74h14.69Z"/>
    <path class="cls-2" d="M184.78,563.3c0,.9-.32,1.65-.96,2.24-.64,.59-1.41,.89-2.3,.89s-1.65-.3-2.27-.91c-.62-.61-.93-1.35-.93-2.22s.31-1.66,.93-2.27c.62-.61,1.38-.91,2.27-.91s1.66,.31,2.3,.91,.96,1.36,.96,2.27Zm-.78,33.61h-4.9v-24.7h4.9v24.7Z"/>
    <path class="cls-2" d="M218.39,593c-.94,1.5-2.22,2.63-3.83,3.42-1.62,.78-3.31,1.17-5.08,1.17-1.91,0-3.63-.34-5.16-1.01-1.53-.68-2.83-1.61-3.91-2.79-1.08-1.18-1.91-2.57-2.5-4.17-.59-1.6-.89-3.3-.89-5.11s.29-3.5,.89-5.08c.59-1.58,1.43-2.96,2.53-4.14,1.1-1.18,2.41-2.1,3.93-2.76,1.53-.66,3.21-.99,5.05-.99,2.01,0,3.77,.43,5.26,1.28,1.49,.85,2.67,1.88,3.54,3.1h.1v-18.39h4.9v39.39h-4.74v-3.91h-.1Zm-16.26-8.47c0,1.14,.17,2.25,.52,3.32,.35,1.07,.87,2.03,1.56,2.86,.69,.83,1.54,1.5,2.55,2,1.01,.5,2.19,.75,3.54,.75,1.25,0,2.39-.24,3.41-.73,1.02-.48,1.9-1.13,2.63-1.95,.73-.81,1.29-1.76,1.69-2.83,.4-1.07,.6-2.2,.6-3.38s-.2-2.3-.6-3.38c-.4-1.07-.96-2.03-1.69-2.86-.73-.83-1.61-1.49-2.63-1.97-1.03-.48-2.16-.73-3.41-.73-1.35,0-2.54,.24-3.54,.73-1.01,.48-1.86,1.14-2.55,1.97-.7,.83-1.22,1.78-1.56,2.86-.35,1.07-.52,2.18-.52,3.33Z"/>
    <path class="cls-2" d="M261.01,584.35v.83c0,.28-.02,.56-.05,.84h-19.65c.03,1.04,.27,2.01,.7,2.92,.43,.92,1.02,1.71,1.75,2.38,.73,.67,1.57,1.2,2.53,1.58,.95,.38,1.97,.57,3.05,.57,1.67,0,3.11-.37,4.33-1.09,1.22-.73,2.17-1.62,2.86-2.66l3.44,2.76c-1.32,1.75-2.88,3.04-4.66,3.87-1.79,.83-3.78,1.24-5.97,1.24-1.88,0-3.61-.31-5.21-.94-1.6-.63-2.97-1.5-4.12-2.63-1.15-1.13-2.05-2.49-2.71-4.09-.66-1.6-.99-3.37-.99-5.31s.32-3.68,.97-5.29c.64-1.62,1.54-3,2.69-4.14,1.15-1.15,2.51-2.04,4.07-2.69,1.57-.64,3.26-.96,5.07-.96s3.45,.3,4.93,.89c1.48,.59,2.73,1.44,3.76,2.55,1.03,1.11,1.82,2.46,2.38,4.04,.56,1.58,.84,3.36,.84,5.34Zm-5-1.98c-.03-.97-.2-1.88-.5-2.74-.29-.85-.73-1.59-1.3-2.22-.57-.62-1.29-1.12-2.14-1.48-.85-.37-1.85-.55-3-.55-1.04,0-2.03,.18-2.94,.55-.92,.37-1.72,.86-2.4,1.48-.68,.63-1.23,1.36-1.67,2.22-.44,.85-.69,1.76-.76,2.74h14.69Z"/>
    <path class="cls-2" d="M273.88,574.97c-.03-1.04-.09-1.96-.16-2.76h4.64c.07,.63,.12,1.34,.16,2.16,.03,.82,.05,1.48,.05,2.01h.16c.69-1.46,1.71-2.63,3.05-3.52,1.34-.89,2.84-1.33,4.51-1.33,.76,0,1.41,.07,1.93,.21l-.21,4.53c-.69-.17-1.44-.26-2.24-.26-1.18,0-2.21,.22-3.07,.65-.87,.43-1.59,1.01-2.16,1.75-.57,.73-1,1.57-1.28,2.53-.28,.96-.42,1.95-.42,3v12.98h-4.9v-19.39c0-.66-.02-1.51-.05-2.55Z"/>
    <path class="cls-2" d="M323.54,592.32h19.28v4.59h-24.44v-36.89h23.66v4.54h-18.5v11.05h17.41v4.43h-17.41v12.3Z"/>
    <path class="cls-2" d="M360.59,596.91h-4.9v-39.39h4.9v39.39Z"/>
    <path class="cls-2" d="M398.37,584.35v.83c0,.28-.02,.56-.05,.84h-19.65c.03,1.04,.27,2.01,.7,2.92,.43,.92,1.02,1.71,1.75,2.38,.73,.67,1.57,1.2,2.53,1.58,.95,.38,1.97,.57,3.05,.57,1.67,0,3.11-.37,4.33-1.09,1.22-.73,2.17-1.62,2.86-2.66l3.44,2.76c-1.32,1.75-2.88,3.04-4.66,3.87-1.79,.83-3.78,1.24-5.97,1.24-1.88,0-3.61-.31-5.21-.94-1.6-.63-2.97-1.5-4.12-2.63-1.15-1.13-2.05-2.49-2.71-4.09-.66-1.6-.99-3.37-.99-5.31s.32-3.68,.97-5.29c.64-1.62,1.54-3,2.69-4.14,1.15-1.15,2.51-2.04,4.07-2.69,1.57-.64,3.26-.96,5.07-.96s3.45,.3,4.93,.89c1.48,.59,2.73,1.44,3.76,2.55,1.03,1.11,1.82,2.46,2.38,4.04,.56,1.58,.84,3.36,.84,5.34Zm-5-1.98c-.03-.97-.2-1.88-.5-2.74-.29-.85-.73-1.59-1.3-2.22-.57-.62-1.29-1.12-2.14-1.48-.85-.37-1.85-.55-3-.55-1.04,0-2.03,.18-2.94,.55-.92,.37-1.72,.86-2.4,1.48-.68,.63-1.23,1.36-1.67,2.22-.44,.85-.69,1.76-.76,2.74h14.69Z"/>
    <path class="cls-2" d="M428.59,578.46c-.52-.8-1.3-1.47-2.35-2.01-1.04-.54-2.15-.81-3.33-.81-1.29,0-2.42,.24-3.41,.73-.99,.49-1.83,1.14-2.53,1.95-.7,.82-1.22,1.76-1.59,2.84s-.55,2.21-.55,3.39,.18,2.31,.55,3.39,.89,2.02,1.59,2.84c.69,.81,1.55,1.47,2.55,1.95,1.01,.49,2.15,.73,3.44,.73s2.39-.24,3.41-.73c1.03-.48,1.87-1.15,2.53-1.98l3.28,2.97c-1.04,1.22-2.34,2.16-3.91,2.84-1.56,.68-3.33,1.01-5.31,1.01s-3.67-.31-5.29-.94c-1.61-.63-3.01-1.5-4.2-2.63-1.18-1.13-2.11-2.49-2.79-4.09-.68-1.6-1.02-3.39-1.02-5.37s.33-3.71,.99-5.31,1.58-2.97,2.76-4.12c1.18-1.15,2.58-2.03,4.19-2.66,1.62-.63,3.36-.94,5.24-.94,1.74,0,3.47,.35,5.18,1.04,1.72,.7,3.08,1.7,4.09,3.02l-3.54,2.87Z"/>
    <path class="cls-2" d="M455.27,576.22h-6.56v12.83c0,1.49,.28,2.55,.83,3.19,.56,.64,1.44,.96,2.66,.96,.45,0,.94-.05,1.46-.14s.99-.24,1.41-.43l.16,4.01c-.59,.21-1.24,.37-1.95,.49-.71,.12-1.45,.18-2.22,.18-2.33,0-4.11-.64-5.34-1.93-1.23-1.28-1.85-3.21-1.85-5.78v-13.39h-4.74v-4.01h4.74v-7.09h4.85v7.09h6.56v4.01Z"/>
    <path class="cls-2" d="M466.43,574.97c-.04-1.04-.09-1.96-.16-2.76h4.64c.07,.63,.12,1.34,.16,2.16,.03,.82,.05,1.48,.05,2.01h.16c.69-1.46,1.71-2.63,3.05-3.52,1.34-.89,2.84-1.33,4.51-1.33,.76,0,1.41,.07,1.93,.21l-.21,4.53c-.69-.17-1.44-.26-2.24-.26-1.18,0-2.21,.22-3.07,.65-.87,.43-1.59,1.01-2.16,1.75-.57,.73-1,1.57-1.28,2.53-.28,.96-.42,1.95-.42,3v12.98h-4.9v-19.39c0-.66-.02-1.51-.05-2.55Z"/>
    <path class="cls-2" d="M497.22,563.3c0,.9-.32,1.65-.96,2.24-.64,.59-1.4,.89-2.3,.89s-1.66-.3-2.27-.91c-.62-.61-.93-1.35-.93-2.22s.31-1.66,.93-2.27c.62-.61,1.38-.91,2.27-.91s1.66,.31,2.3,.91c.64,.61,.96,1.36,.96,2.27Zm-.78,33.61h-4.9v-24.7h4.9v24.7Z"/>
    <path class="cls-2" d="M528.44,578.46c-.52-.8-1.31-1.47-2.35-2.01-1.04-.54-2.16-.81-3.33-.81-1.28,0-2.42,.24-3.41,.73-.99,.49-1.83,1.14-2.53,1.95-.7,.82-1.23,1.76-1.59,2.84-.37,1.08-.55,2.21-.55,3.39s.18,2.31,.55,3.39c.36,1.08,.89,2.02,1.59,2.84,.69,.81,1.54,1.47,2.55,1.95,1.01,.49,2.15,.73,3.44,.73s2.39-.24,3.42-.73c1.02-.48,1.86-1.15,2.53-1.98l3.28,2.97c-1.04,1.22-2.35,2.16-3.91,2.84-1.56,.68-3.33,1.01-5.32,1.01s-3.67-.31-5.29-.94c-1.62-.63-3.01-1.5-4.2-2.63-1.18-1.13-2.11-2.49-2.79-4.09-.68-1.6-1.02-3.39-1.02-5.37s.33-3.71,.99-5.31c.66-1.6,1.58-2.97,2.76-4.12,1.18-1.15,2.58-2.03,4.19-2.66,1.62-.63,3.36-.94,5.24-.94,1.74,0,3.46,.35,5.18,1.04,1.72,.7,3.08,1.7,4.09,3.02l-3.54,2.87Z"/>
    <path class="cls-2" d="M565.9,557.83v52.11h-4.27v-52.11h4.27Z"/>
    <path class="cls-2" d="M599.36,560.01h12.66c2.36,0,4.72,.35,7.09,1.04,2.36,.7,4.5,1.79,6.41,3.28,1.91,1.49,3.46,3.41,4.64,5.73,1.18,2.33,1.77,5.12,1.77,8.39s-.59,5.9-1.77,8.2c-1.18,2.31-2.73,4.22-4.64,5.73-1.91,1.51-4.05,2.64-6.41,3.39-2.36,.75-4.73,1.12-7.09,1.12h-12.66v-36.89Zm5.16,32.36h6.46c2.22,0,4.28-.31,6.18-.94,1.89-.63,3.53-1.53,4.9-2.71,1.37-1.18,2.44-2.64,3.21-4.38,.76-1.74,1.15-3.7,1.15-5.89s-.38-4.31-1.15-6.05c-.77-1.74-1.83-3.18-3.21-4.35-1.37-1.16-3.01-2.05-4.9-2.66-1.89-.61-3.95-.91-6.18-.91h-6.46v27.88Z"/>
    <path class="cls-2" d="M645.16,560.01h12.72c1.39,0,2.78,.16,4.17,.47,1.39,.31,2.63,.83,3.73,1.56,1.1,.73,1.98,1.69,2.66,2.86,.68,1.18,1.01,2.66,1.01,4.43,0,2.05-.59,3.77-1.77,5.16-1.18,1.39-2.74,2.34-4.69,2.86v.1c1.18,.14,2.27,.44,3.28,.91,1.01,.47,1.88,1.09,2.61,1.85,.73,.77,1.29,1.67,1.69,2.71,.4,1.04,.6,2.21,.6,3.49,0,1.77-.37,3.32-1.1,4.64s-1.72,2.41-2.97,3.26c-1.25,.85-2.72,1.49-4.4,1.93-1.69,.44-3.48,.65-5.39,.65h-12.14v-36.89Zm5.16,15.58h6.72c.97,0,1.9-.11,2.79-.34,.89-.22,1.66-.57,2.32-1.04,.66-.47,1.18-1.06,1.56-1.77,.38-.71,.57-1.57,.57-2.58,0-1.98-.73-3.39-2.19-4.25-1.46-.85-3.42-1.28-5.89-1.28h-5.89v11.26Zm0,16.94h6.46c1.08,0,2.16-.1,3.26-.29,1.1-.19,2.08-.53,2.97-1.01,.89-.49,1.6-1.14,2.14-1.95s.81-1.85,.81-3.1c0-2.19-.75-3.77-2.24-4.74-1.49-.97-3.65-1.46-6.46-1.46h-6.93v12.56Z"/>
    <path class="cls-2" d="M709.09,592.32h19.28v4.59h-24.44v-36.89h23.66v4.54h-18.5v11.05h17.41v4.43h-17.41v12.3Z"/>
    <path class="cls-2" d="M747.19,593.78c0,.9-.33,1.7-.99,2.39-.66,.7-1.49,1.04-2.5,1.04s-1.8-.34-2.48-1.01-1.01-1.47-1.01-2.37,.33-1.75,.99-2.42c.66-.68,1.49-1.01,2.5-1.01s1.84,.33,2.5,.99c.66,.66,.99,1.46,.99,2.4Z"/>
    <path class="cls-2" d="M792.73,591.18c-1.46,1.98-3.35,3.59-5.68,4.82-2.33,1.23-5.12,1.85-8.39,1.85-2.81,0-5.41-.48-7.79-1.43-2.38-.95-4.43-2.29-6.15-4.01-1.72-1.72-3.07-3.77-4.04-6.15-.97-2.38-1.46-4.99-1.46-7.84s.5-5.51,1.49-7.89c.99-2.38,2.36-4.41,4.12-6.1,1.75-1.69,3.83-3,6.23-3.93,2.4-.94,5-1.41,7.82-1.41,1.25,0,2.52,.12,3.8,.37s2.52,.61,3.7,1.09c1.18,.49,2.26,1.09,3.23,1.8s1.81,1.54,2.5,2.48l-4.07,3.13c-.9-1.25-2.18-2.28-3.83-3.1-1.65-.81-3.43-1.22-5.34-1.22-2.15,0-4.09,.39-5.81,1.17-1.72,.78-3.19,1.85-4.4,3.21-1.22,1.35-2.15,2.92-2.81,4.71-.66,1.79-.99,3.69-.99,5.71s.32,4.03,.97,5.84c.64,1.81,1.56,3.38,2.76,4.71,1.2,1.34,2.66,2.39,4.38,3.15,1.72,.77,3.64,1.15,5.76,1.15s3.98-.42,5.68-1.25c1.7-.84,3.11-2.05,4.22-3.65l4.12,2.81Z"/>
    <path class="cls-2" d="M809.93,593.78c0,.9-.33,1.7-.99,2.39-.66,.7-1.49,1.04-2.5,1.04s-1.8-.34-2.48-1.01-1.01-1.47-1.01-2.37,.33-1.75,.99-2.42c.66-.68,1.49-1.01,2.5-1.01s1.84,.33,2.5,.99,.99,1.46,.99,2.4Z"/>
    <path class="cls-2" d="M861.05,578.41c0,2.85-.49,5.46-1.48,7.84-.99,2.38-2.35,4.43-4.09,6.15-1.74,1.72-3.8,3.06-6.2,4.01-2.4,.95-5,1.43-7.82,1.43s-5.41-.48-7.79-1.43c-2.38-.95-4.44-2.29-6.17-4.01-1.74-1.72-3.09-3.77-4.07-6.15-.97-2.38-1.46-4.99-1.46-7.84s.49-5.51,1.46-7.89c.97-2.38,2.33-4.41,4.07-6.1,1.74-1.69,3.79-3,6.17-3.93,2.38-.94,4.98-1.41,7.79-1.41s5.42,.47,7.82,1.41c2.4,.94,4.46,2.25,6.2,3.93,1.74,1.69,3.1,3.72,4.09,6.1,.99,2.38,1.48,5.01,1.48,7.89Zm-5.57,0c0-2.01-.33-3.92-.99-5.71-.66-1.79-1.6-3.36-2.81-4.71-1.22-1.36-2.69-2.42-4.4-3.21s-3.66-1.17-5.81-1.17-4.04,.39-5.76,1.17c-1.72,.78-3.18,1.85-4.38,3.21-1.2,1.35-2.13,2.92-2.79,4.71-.66,1.79-.99,3.69-.99,5.71s.33,3.98,.99,5.78c.66,1.81,1.6,3.38,2.81,4.72,1.22,1.34,2.67,2.39,4.38,3.15,1.7,.76,3.61,1.15,5.73,1.15s4.05-.38,5.78-1.15c1.74-.76,3.21-1.81,4.43-3.15s2.15-2.91,2.81-4.72c.66-1.81,.99-3.73,.99-5.78Z"/>
    <path class="cls-2" d="M877.51,593.78c0,.9-.33,1.7-.99,2.39-.66,.7-1.49,1.04-2.5,1.04s-1.8-.34-2.48-1.01-1.01-1.47-1.01-2.37,.33-1.75,.99-2.42c.66-.68,1.49-1.01,2.5-1.01s1.84,.33,2.5,.99,.99,1.46,.99,2.4Z"/>
    <path class="cls-2" d="M936.86,567.62c-1.11-1.22-2.53-2.19-4.25-2.92-1.72-.73-3.64-1.1-5.76-1.1s-4.1,.39-5.84,1.17c-1.74,.78-3.21,1.85-4.43,3.21-1.22,1.35-2.15,2.92-2.81,4.71-.66,1.79-.99,3.69-.99,5.71s.33,3.98,.99,5.78c.66,1.81,1.6,3.38,2.81,4.72,1.22,1.34,2.71,2.39,4.48,3.15,1.77,.76,3.75,1.15,5.94,1.15,1.74,0,3.33-.16,4.79-.47,1.46-.31,2.73-.76,3.8-1.35v-10.27h-8.18v-4.38h13.29v17.87c-1.95,1.04-4.07,1.84-6.36,2.4-2.29,.55-4.79,.83-7.5,.83-2.89,0-5.53-.48-7.95-1.43-2.42-.95-4.49-2.29-6.23-4.01-1.74-1.72-3.09-3.77-4.07-6.15-.97-2.38-1.46-4.99-1.46-7.84s.5-5.51,1.49-7.89c.99-2.38,2.36-4.41,4.12-6.1,1.75-1.69,3.83-3,6.23-3.93,2.4-.94,5-1.41,7.82-1.41,2.95,0,5.59,.43,7.9,1.3,2.31,.87,4.23,2.03,5.76,3.49l-3.6,3.75Z"/>
    <path class="cls-2" d="M955.42,574.97c-.04-1.04-.09-1.96-.16-2.76h4.64c.07,.63,.12,1.34,.16,2.16,.03,.82,.05,1.48,.05,2.01h.16c.69-1.46,1.71-2.63,3.05-3.52,1.34-.89,2.84-1.33,4.51-1.33,.76,0,1.41,.07,1.93,.21l-.21,4.53c-.69-.17-1.44-.26-2.24-.26-1.18,0-2.21,.22-3.07,.65-.87,.43-1.59,1.01-2.16,1.75-.57,.73-1,1.57-1.28,2.53-.28,.96-.42,1.95-.42,3v12.98h-4.9v-19.39c0-.66-.02-1.51-.05-2.55Z"/>
    <path class="cls-2" d="M1004.56,584.51c0,1.91-.34,3.66-1.02,5.26-.68,1.6-1.61,2.98-2.81,4.14-1.2,1.16-2.61,2.07-4.24,2.71-1.63,.64-3.39,.96-5.27,.96s-3.63-.32-5.26-.96c-1.63-.64-3.04-1.54-4.22-2.71-1.18-1.16-2.11-2.54-2.79-4.14-.68-1.6-1.02-3.35-1.02-5.26s.34-3.65,1.02-5.24c.68-1.58,1.61-2.94,2.79-4.09,1.18-1.15,2.59-2.04,4.22-2.69,1.63-.64,3.39-.96,5.26-.96s3.63,.32,5.27,.96c1.63,.64,3.05,1.54,4.24,2.69,1.2,1.15,2.14,2.51,2.81,4.09,.68,1.58,1.02,3.33,1.02,5.24Zm-5.11,.03c0-1.18-.18-2.3-.55-3.38-.37-1.07-.9-2.01-1.6-2.83s-1.56-1.46-2.59-1.95c-1.03-.48-2.21-.73-3.53-.73s-2.5,.24-3.53,.73c-1.03,.48-1.89,1.13-2.59,1.95-.69,.81-1.23,1.76-1.59,2.83-.37,1.07-.55,2.2-.55,3.38s.18,2.3,.55,3.38c.37,1.07,.9,2.03,1.59,2.86,.7,.83,1.56,1.49,2.59,1.97,1.03,.48,2.2,.73,3.53,.73s2.5-.24,3.53-.73c1.03-.48,1.89-1.14,2.59-1.97,.7-.83,1.23-1.78,1.6-2.86,.37-1.07,.55-2.2,.55-3.38Z"/>
    <path class="cls-2" d="M1034.88,596.91c-.07-.63-.12-1.33-.16-2.11-.04-.78-.05-1.43-.05-1.95h-.1c-.63,1.32-1.68,2.44-3.15,3.36-1.48,.92-3.12,1.38-4.92,1.38-1.6,0-2.98-.26-4.14-.78-1.16-.52-2.12-1.24-2.87-2.16-.75-.92-1.3-1.99-1.67-3.21-.37-1.22-.55-2.52-.55-3.91v-15.32h4.9v13.65c0,1.01,.08,1.97,.23,2.89,.16,.92,.44,1.73,.86,2.42,.42,.69,.99,1.25,1.72,1.67s1.67,.63,2.81,.63c1.98,0,3.58-.74,4.79-2.22,1.22-1.48,1.83-3.45,1.83-5.91v-13.13h4.9v19.38c0,.66,.02,1.51,.05,2.55,.04,1.04,.09,1.96,.16,2.76h-4.64Z"/>
    <path class="cls-2" d="M1058.85,609.41h-4.9v-37.21h4.8v3.86h.16c.8-1.32,1.97-2.41,3.51-3.26,1.54-.85,3.33-1.28,5.38-1.28,1.84,0,3.51,.33,5.02,.99,1.51,.66,2.81,1.58,3.9,2.76,1.09,1.18,1.93,2.56,2.52,4.14,.59,1.58,.89,3.27,.89,5.08s-.3,3.51-.89,5.11c-.59,1.6-1.42,2.99-2.49,4.17-1.07,1.18-2.37,2.11-3.9,2.79-1.53,.68-3.24,1.01-5.15,1.01-1.77,0-3.43-.38-4.99-1.15-1.56-.76-2.79-1.84-3.69-3.23h-.16v16.21Zm16.26-24.91c0-1.15-.18-2.26-.52-3.33-.35-1.08-.87-2.03-1.57-2.87-.69-.83-1.55-1.49-2.58-1.98-1.03-.49-2.22-.73-3.57-.73-1.25,0-2.39,.24-3.41,.73-1.02,.48-1.9,1.15-2.63,1.98-.73,.84-1.3,1.79-1.69,2.87s-.6,2.21-.6,3.39,.2,2.31,.6,3.39,.96,2.02,1.69,2.84c.73,.81,1.61,1.47,2.63,1.95,1.02,.49,2.16,.73,3.41,.73,1.36,0,2.54-.25,3.57-.75,1.02-.5,1.88-1.17,2.58-2.01,.69-.83,1.22-1.79,1.57-2.86,.34-1.08,.52-2.19,.52-3.33Z"/>
  </g>
  <path class="cls-1" d="M814.1,186.89h46.82l-.04-21.6c.03-44.61,.13-89.22-.14-133.83-.11-18.94-14.07-31.21-34.45-31.36-16.08-.12-32.16,.16-48.24-.08-13.29-.2-25.81,1.49-35.89,10.31-9.29-7.22-19.79-10.18-31.32-10.23-16.26-.07-32.52-.14-48.78,.02-19.35,.18-32.97,12.15-33.1,30.18-.36,51.28-.21,102.57-.23,153.86,0,.33,0,2.58,0,2.58h46.93V43.98h45.57V186.66h46.91V44.03h45.98V177.01l-.02,9.87Z"/>
</svg>